<svg xmlns="http://www.w3.org/2000/svg" xmlns:xlink="http://www.w3.org/1999/xlink" width="50" zoomAndPan="magnify" viewBox="0 0 37.5 37.499999" height="50" preserveAspectRatio="xMidYMid meet" version="1.0"><defs><clipPath id="a66d26d2b9"><path d="M 0.667969 0.960938 L 36.433594 0.960938 L 36.433594 36.042969 L 0.667969 36.042969 Z M 0.667969 0.960938 " clip-rule="nonzero"/></clipPath><clipPath id="4a36ee2cfe"><path d="M 2.144531 0.960938 L 34.859375 0.960938 C 35.253906 0.960938 35.628906 1.117188 35.90625 1.394531 C 36.183594 1.671875 36.339844 2.050781 36.339844 2.441406 L 36.339844 34.5625 C 36.339844 34.957031 36.183594 35.332031 35.90625 35.609375 C 35.628906 35.886719 35.253906 36.042969 34.859375 36.042969 L 2.144531 36.042969 C 1.753906 36.042969 1.378906 35.886719 1.101562 35.609375 C 0.820312 35.332031 0.667969 34.957031 0.667969 34.5625 L 0.667969 2.441406 C 0.667969 2.050781 0.820312 1.671875 1.101562 1.394531 C 1.378906 1.117188 1.753906 0.960938 2.144531 0.960938 Z M 2.144531 0.960938 " clip-rule="nonzero"/></clipPath><clipPath id="4a3565910c"><path d="M 0.667969 0.960938 L 36.433594 0.960938 L 36.433594 36.042969 L 0.667969 36.042969 Z M 0.667969 0.960938 " clip-rule="nonzero"/></clipPath><clipPath id="3204d68d17"><path d="M 2.144531 0.960938 L 34.859375 0.960938 C 35.253906 0.960938 35.628906 1.117188 35.90625 1.394531 C 36.183594 1.671875 36.339844 2.050781 36.339844 2.441406 L 36.339844 34.5625 C 36.339844 34.957031 36.183594 35.332031 35.90625 35.609375 C 35.628906 35.886719 35.253906 36.042969 34.859375 36.042969 L 2.144531 36.042969 C 1.753906 36.042969 1.378906 35.886719 1.101562 35.609375 C 0.820312 35.332031 0.667969 34.957031 0.667969 34.5625 L 0.667969 2.441406 C 0.667969 2.050781 0.820312 1.671875 1.101562 1.394531 C 1.378906 1.117188 1.753906 0.960938 2.144531 0.960938 Z M 2.144531 0.960938 " clip-rule="nonzero"/></clipPath><clipPath id="2d3d6a4d16"><rect x="0" width="37" y="0" height="37"/></clipPath><clipPath id="99c7ad39a0"><path d="M 3.699219 4 L 33 4 L 33 33.304688 L 3.699219 33.304688 Z M 3.699219 4 " clip-rule="nonzero"/></clipPath><clipPath id="5514804f93"><path d="M 8 32 L 19 32 L 19 33.304688 L 8 33.304688 Z M 8 32 " clip-rule="nonzero"/></clipPath><clipPath id="acb7f3f2b9"><path d="M 18 32 L 24 32 L 24 33.304688 L 18 33.304688 Z M 18 32 " clip-rule="nonzero"/></clipPath></defs><g clip-path="url(#a66d26d2b9)"><g clip-path="url(#4a36ee2cfe)"><g transform="matrix(1, 0, 0, 1, 0.000000000000000056, 0)"><g clip-path="url(#2d3d6a4d16)"><g clip-path="url(#4a3565910c)"><g clip-path="url(#3204d68d17)"><path fill="#ffb900" d="M 0.667969 0.960938 L 36.296875 0.960938 L 36.296875 36.042969 L 0.667969 36.042969 Z M 0.667969 0.960938 " fill-opacity="1" fill-rule="nonzero"/></g></g></g></g></g></g><g clip-path="url(#99c7ad39a0)"><path fill="#000000" d="M 29.542969 7.464844 C 25.765625 3.6875 19.621094 3.6875 15.847656 7.464844 C 12.371094 10.941406 12.097656 16.425781 15.023438 20.21875 L 13.890625 21.355469 L 13.148438 20.613281 C 13.027344 20.492188 12.816406 20.492188 12.699219 20.613281 L 4.46875 28.839844 C 3.976562 29.335938 3.703125 29.992188 3.703125 30.6875 C 3.703125 31.386719 3.976562 32.042969 4.46875 32.539062 C 4.964844 33.03125 5.617188 33.300781 6.316406 33.300781 C 7.015625 33.300781 7.671875 33.03125 8.164062 32.539062 L 15.371094 25.328125 C 15.371094 25.328125 15.375 25.328125 15.375 25.328125 L 16.394531 24.308594 C 16.453125 24.25 16.488281 24.167969 16.488281 24.082031 C 16.488281 24 16.453125 23.917969 16.394531 23.859375 L 15.652344 23.117188 L 16.789062 21.984375 C 18.519531 23.320312 20.605469 23.992188 22.695312 23.992188 C 25.175781 23.992188 27.65625 23.046875 29.542969 21.160156 C 33.320312 17.382812 33.320312 11.242188 29.542969 7.464844 Z M 7.714844 32.085938 C 7.339844 32.460938 6.84375 32.664062 6.316406 32.664062 C 5.789062 32.664062 5.292969 32.460938 4.917969 32.085938 C 4.546875 31.714844 4.339844 31.21875 4.339844 30.6875 C 4.339844 30.160156 4.546875 29.664062 4.917969 29.292969 L 11.902344 22.308594 L 14.695312 25.105469 Z M 15.148438 24.652344 L 12.351562 21.859375 L 12.921875 21.289062 L 15.71875 24.082031 Z M 15.203125 22.667969 L 14.339844 21.804688 L 15.429688 20.714844 C 15.5625 20.867188 15.703125 21.015625 15.847656 21.160156 C 15.992188 21.304688 16.140625 21.441406 16.292969 21.574219 Z M 29.089844 20.710938 C 25.5625 24.234375 19.824219 24.234375 16.296875 20.710938 C 12.769531 17.183594 12.769531 11.441406 16.296875 7.914062 C 18.0625 6.152344 20.378906 5.269531 22.695312 5.269531 C 25.011719 5.269531 27.328125 6.152344 29.089844 7.914062 C 32.617188 11.441406 32.617188 17.183594 29.089844 20.710938 Z M 29.089844 20.710938 " fill-opacity="1" fill-rule="nonzero"/></g><path fill="#000000" d="M 28.515625 8.488281 C 25.304688 5.28125 20.082031 5.28125 16.871094 8.488281 C 13.660156 11.699219 13.660156 16.925781 16.871094 20.132812 C 18.476562 21.738281 20.585938 22.542969 22.695312 22.542969 C 24.804688 22.542969 26.910156 21.738281 28.515625 20.132812 C 31.726562 16.925781 31.726562 11.699219 28.515625 8.488281 Z M 28.066406 19.683594 C 25.105469 22.644531 20.285156 22.644531 17.324219 19.683594 C 14.359375 16.722656 14.359375 11.902344 17.324219 8.941406 C 18.804688 7.460938 20.75 6.71875 22.695312 6.71875 C 24.640625 6.71875 26.585938 7.460938 28.066406 8.941406 C 31.027344 11.902344 31.027344 16.722656 28.066406 19.683594 Z M 28.066406 19.683594 " fill-opacity="1" fill-rule="nonzero"/><path fill="#000000" d="M 29.042969 16.285156 C 28.878906 16.222656 28.695312 16.308594 28.636719 16.472656 C 28.386719 17.15625 28.027344 17.789062 27.5625 18.347656 C 27.449219 18.484375 27.46875 18.683594 27.601562 18.796875 C 27.664062 18.847656 27.734375 18.871094 27.804688 18.871094 C 27.898438 18.871094 27.988281 18.832031 28.050781 18.753906 C 28.5625 18.140625 28.960938 17.445312 29.234375 16.691406 C 29.292969 16.527344 29.210938 16.34375 29.042969 16.285156 Z M 29.042969 16.285156 " fill-opacity="1" fill-rule="nonzero"/><path fill="#000000" d="M 27.617188 9.390625 C 27.492188 9.265625 27.289062 9.265625 27.164062 9.390625 C 27.039062 9.515625 27.039062 9.71875 27.164062 9.839844 C 28.574219 11.25 29.226562 13.191406 28.953125 15.175781 C 28.929688 15.347656 29.054688 15.507812 29.226562 15.53125 C 29.242188 15.535156 29.257812 15.535156 29.269531 15.535156 C 29.429688 15.535156 29.566406 15.421875 29.585938 15.261719 C 29.882812 13.078125 29.164062 10.941406 27.617188 9.390625 Z M 27.617188 9.390625 " fill-opacity="1" fill-rule="nonzero"/><path fill="#000000" d="M 11.980469 25.027344 C 11.855469 24.902344 11.652344 24.902344 11.527344 25.027344 L 5.925781 30.628906 C 5.800781 30.753906 5.800781 30.957031 5.925781 31.078125 C 5.988281 31.140625 6.070312 31.171875 6.152344 31.171875 C 6.234375 31.171875 6.316406 31.140625 6.375 31.078125 L 11.980469 25.476562 C 12.105469 25.355469 12.105469 25.152344 11.980469 25.027344 Z M 11.980469 25.027344 " fill-opacity="1" fill-rule="nonzero"/><g clip-path="url(#5514804f93)"><path fill="#000000" d="M 18.042969 32.664062 L 8.953125 32.664062 C 8.777344 32.664062 8.632812 32.808594 8.632812 32.984375 C 8.632812 33.160156 8.777344 33.300781 8.953125 33.300781 L 18.042969 33.300781 C 18.21875 33.300781 18.359375 33.160156 18.359375 32.984375 C 18.359375 32.808594 18.21875 32.664062 18.042969 32.664062 Z M 18.042969 32.664062 " fill-opacity="1" fill-rule="nonzero"/></g><g clip-path="url(#acb7f3f2b9)"><path fill="#000000" d="M 22.695312 32.664062 L 19.28125 32.664062 C 19.105469 32.664062 18.964844 32.808594 18.964844 32.984375 C 18.964844 33.160156 19.105469 33.300781 19.28125 33.300781 L 22.695312 33.300781 C 22.871094 33.300781 23.011719 33.160156 23.011719 32.984375 C 23.011719 32.808594 22.871094 32.664062 22.695312 32.664062 Z M 22.695312 32.664062 " fill-opacity="1" fill-rule="nonzero"/></g></svg>